<?xml version="1.0" standalone="no"?>
<svg xmlns:xlink="http://www.w3.org/1999/xlink" id="wave" style="transform:rotate(0deg); transition: 0.3s" viewBox="0 0 1440 490" version="1.1" xmlns="http://www.w3.org/2000/svg"><defs><linearGradient id="sw-gradient-0" x1="0" x2="0" y1="1" y2="0"><stop stop-color="rgba(32.514, 113.445, 191.57, 1)" offset="0%"/><stop stop-color="rgba(11, 93.826, 255, 1)" offset="100%"/></linearGradient></defs><path style="transform:translate(0, 0px); opacity:1" fill="url(#sw-gradient-0)" d="M0,441L26.7,383.8C53.3,327,107,212,160,187.8C213.3,163,267,229,320,253.2C373.3,278,427,261,480,285.8C533.3,310,587,376,640,400.2C693.3,425,747,408,800,343C853.3,278,907,163,960,163.3C1013.3,163,1067,278,1120,269.5C1173.3,261,1227,131,1280,106.2C1333.3,82,1387,163,1440,179.7C1493.3,196,1547,147,1600,179.7C1653.3,212,1707,327,1760,334.8C1813.3,343,1867,245,1920,196C1973.3,147,2027,147,2080,155.2C2133.3,163,2187,180,2240,228.7C2293.3,278,2347,359,2400,392C2453.3,425,2507,408,2560,383.8C2613.3,359,2667,327,2720,261.3C2773.3,196,2827,98,2880,122.5C2933.3,147,2987,294,3040,310.3C3093.3,327,3147,212,3200,212.3C3253.3,212,3307,327,3360,383.8C3413.3,441,3467,441,3520,400.2C3573.3,359,3627,278,3680,261.3C3733.3,245,3787,294,3813,318.5L3840,343L3840,490L3813.3,490C3786.7,490,3733,490,3680,490C3626.7,490,3573,490,3520,490C3466.7,490,3413,490,3360,490C3306.7,490,3253,490,3200,490C3146.7,490,3093,490,3040,490C2986.7,490,2933,490,2880,490C2826.7,490,2773,490,2720,490C2666.7,490,2613,490,2560,490C2506.7,490,2453,490,2400,490C2346.7,490,2293,490,2240,490C2186.7,490,2133,490,2080,490C2026.7,490,1973,490,1920,490C1866.7,490,1813,490,1760,490C1706.7,490,1653,490,1600,490C1546.7,490,1493,490,1440,490C1386.7,490,1333,490,1280,490C1226.7,490,1173,490,1120,490C1066.7,490,1013,490,960,490C906.7,490,853,490,800,490C746.7,490,693,490,640,490C586.7,490,533,490,480,490C426.7,490,373,490,320,490C266.7,490,213,490,160,490C106.7,490,53,490,27,490L0,490Z"/></svg>